<svg version="1" xmlns="http://www.w3.org/2000/svg" width="4000" height="4000" viewBox="0 0 3000.000000 3000.000000"><path d="M1582 18.1c-153.6 3.4-312 32.3-454.7 83-208.2 74-393.4 189.8-549.2 343.4-56.8 56.1-104.1 110.2-150.1 172-158 211.8-255.5 458.6-284.9 721-10.2 90.4-11.8 188.9-4.6 282 19.4 250.3 102.3 490.2 242.3 701.4 93.4 140.9 212.9 267.6 348.2 369.2 226.8 170.4 494.7 271.8 774.5 293.3 34.2 2.7 55.6 3.6 95 4.3 177.5 2.8 356.3-27 523.3-87.3 121.3-43.9 240.7-105.9 346.2-179.8 115.4-80.8 221.1-179.7 308.5-288.7 21.1-26.3 47.5-61.8 50.1-67.4 3.2-6.7 3.3-18.9.3-25.5-1.5-3.3-11.8-14.4-40.3-43-21-21.2-49.2-50-62.7-64-64.5-67.4-88-90.9-93.3-93.5-10.6-5.2-23.8-4.1-32.7 2.8-2.7 2-8.4 9.3-15.4 19.4-43 62.6-85 113-139.9 167.8-107.6 107.5-228.9 189.6-368.1 249-110.5 47.2-227.6 76.7-349 87.9-38 3.5-52.7 4.1-107 4.1-54.1 0-66.6-.5-105.5-4.1-333.4-30.7-637.8-204.7-838.7-479.5-13.5-18.5-44.3-64.9-56.4-84.9-31.7-52.8-63.1-116.4-85.4-173-33.5-85-56.5-172.2-69.4-262.5-7.5-51.9-10.1-88.6-10.8-148-.5-48.5.2-74 3.3-111C480.2 1108 619 830.8 844 630.5c186.7-166.2 420.4-267.7 668.5-290.4 41.2-3.8 59.2-4.5 108-4.5 49.8.1 75.2 1.2 116.2 5.4 300 30.7 573.2 174.4 770.8 405.5 16.2 18.9 32 38.8 50 62.9 14.3 19.1 15.3 20.2 21.3 23.3 5.6 2.9 7.3 3.3 14.1 3.3 6.6 0 8.7-.4 13.8-3 5.3-2.7 9.7-7 38.1-37.9 41.2-44.7 86.2-92.7 122.8-130.7 33-34.2 33.7-35.2 33.8-47.9.1-10.9-1.9-14.6-20.7-38.1-116.2-145.1-253.9-264.4-413.2-358.2-90.7-53.3-197.1-100.9-297.1-132.7-158.2-50.4-318-73.1-488.4-69.4z"/><path d="M1965 747.6c-98.2 6.8-187.3 37.2-267.5 91.5-46.7 31.6-87.5 69.9-123.3 115.8-7.1 9-29.6 41.6-32.9 47.5-.9 1.7-2.7.3-16.4-13.5-75.8-76-173.4-125.7-277.9-141.4-32.7-4.9-79-6.8-110.1-4.6-143.6 10.5-272.8 81.4-358.4 196.6-51.4 69.1-82.5 148.2-93.2 237-2.6 21.5-2.6 86.5 0 107.5 12.4 101.7 50.9 189.8 114.4 262 86.1 97.8 205.2 155.6 338.3 164 12.5.8 143.6 1 458 .8 410.8-.3 441.5-.5 455.5-2.1 68.4-7.9 126.6-25 184.4-54.2 51.9-26.1 95.1-57.5 136.7-99 92.4-92.3 146.4-211.1 155.5-342 1.5-21.7.7-69.7-1.6-90.5-15.7-145.5-88-275-204-365.5-14.4-11.3-44.5-31.4-61.4-41-64-36.5-133.6-59-208.1-67-14.7-1.6-73.6-2.9-88-1.9zm72 203.9c75.7 9.5 143.9 43.4 196.5 97.6 51 52.6 81.3 115.9 91.2 190.4 2.3 17.9 2.3 58.9-.1 77-3.5 27-10 53.9-18.5 76.7-5.2 14.1-6.3 15.9-5.4 8.8.5-3 .7-12.5.7-21-.1-13.2-.5-17-2.7-25.1-6.2-23.7-20.4-44.7-40.2-59.8-9-6.8-26.8-15.4-37.2-18.1-61.6-15.4-121.1 21.3-135 83.4-2.2 10.1-2.2 33.6.1 44.1 9.8 44.6 45.3 78.4 89.9 85.5 12 2 33.9.8 45.5-2.4 17.4-4.8 32.5-13.3 45.6-25.6 8.3-7.8 7.4-5.6-4.8 10.8-20.7 28-48.6 55.4-76.6 75.3-36.3 25.8-82.2 45.2-127.5 53.9-29.3 5.6-20.4 5.3-213.8 5.7l-178.8.4.4-178.3c.4-192.9.1-184 5.7-213.3 19-99.4 83.6-185.3 174-231.4 42.2-21.6 80.3-32 133-36.5 9.4-.8 46 .4 58 1.9zm-826.5 95.5c85.2 12.5 160.4 60.5 207.7 132.5 16.1 24.5 31.5 60 38.2 88.3 5.6 23.3 6.8 35.1 7.2 70.2l.4 32.5-2.4-9.5c-4.9-19.2-14.1-36.1-27.1-49.9-9.4-9.9-18.1-16.2-31-22.6-35.1-17.4-76-14.7-109.4 7.3-8.2 5.4-22.2 19.2-28 27.7-29.8 43.1-25.3 100.2 10.9 137.9 13.9 14.4 32 25.1 51.5 30.3 9 2.4 11.8 2.6 27 2.6s18-.2 27-2.6c39.2-10.5 69.3-41.3 79-80.7l2.3-9.5.1 103.8.1 103.8-159.2-.4c-169.5-.4-164-.2-189.4-5.1-62.4-11.9-116.4-41.5-157.7-86.4-38.4-41.7-61.8-91.6-70.4-149.7-2.7-18.5-2.4-59.1.6-78.4 4.8-31.4 13.8-59.3 28-87.6 39.4-78.1 112.6-134.2 197.8-151.4 12.9-2.6 19.4-3.5 38.8-5.5 9.8-1 44.6.4 58 2.4z"/></svg>